<?xml version="1.0" encoding="UTF-8"?>
<svg width="1440px" height="809px" viewBox="0 0 1440 809" version="1.1" xmlns="http://www.w3.org/2000/svg" xmlns:xlink="http://www.w3.org/1999/xlink">
    <title>Background Content</title>
    <defs>
        <rect id="path-1" x="0" y="0" width="1440" height="809"></rect>
    </defs>
    <g id="Initial-Marketing-Landing-Page" stroke="none" stroke-width="1" fill="none" fill-rule="evenodd">
        <g id="Job-Seeker" transform="translate(0.000000, -616.000000)">
            <g id="Background-Content" transform="translate(0.000000, 616.000000)">
                <mask id="mask-2" fill="white">
                    <use xlink:href="#path-1"></use>
                </mask>
                <g id="Rectangle"></g>
                <path d="M158.282609,143 C159.687333,143 160.826087,144.119288 160.826087,145.5 C160.826087,146.880712 159.687333,148 158.282609,148 C156.877884,148 155.73913,146.880712 155.73913,145.5 C155.73913,144.119288 156.877884,143 158.282609,143 Z M117.586957,143 C118.991681,143 120.130435,144.119288 120.130435,145.5 C120.130435,146.880712 118.991681,148 117.586957,148 C116.182232,148 115.043478,146.880712 115.043478,145.5 C115.043478,144.119288 116.182232,143 117.586957,143 Z M97.2391304,143 C98.6438547,143 99.7826087,144.119288 99.7826087,145.5 C99.7826087,146.880712 98.6438547,148 97.2391304,148 C95.8344062,148 94.6956522,146.880712 94.6956522,145.5 C94.6956522,144.119288 95.8344062,143 97.2391304,143 Z M76.8913043,143 C78.2960286,143 79.4347826,144.119288 79.4347826,145.5 C79.4347826,146.880712 78.2960286,148 76.8913043,148 C75.4865801,148 74.3478261,146.880712 74.3478261,145.5 C74.3478261,144.119288 75.4865801,143 76.8913043,143 Z M56.5434783,143 C57.9482025,143 59.0869565,144.119288 59.0869565,145.5 C59.0869565,146.880712 57.9482025,148 56.5434783,148 C55.138754,148 54,146.880712 54,145.5 C54,144.119288 55.138754,143 56.5434783,143 Z M280.282609,143 C281.687333,143 282.826087,144.119288 282.826087,145.5 C282.826087,146.880712 281.687333,148 280.282609,148 C278.877884,148 277.73913,146.880712 277.73913,145.5 C277.73913,144.119288 278.877884,143 280.282609,143 Z M259.934783,143 C261.339507,143 262.478261,144.119288 262.478261,145.5 C262.478261,146.880712 261.339507,148 259.934783,148 C258.530058,148 257.391304,146.880712 257.391304,145.5 C257.391304,144.119288 258.530058,143 259.934783,143 Z M239.586957,143 C240.991681,143 242.130435,144.119288 242.130435,145.5 C242.130435,146.880712 240.991681,148 239.586957,148 C238.182232,148 237.043478,146.880712 237.043478,145.5 C237.043478,144.119288 238.182232,143 239.586957,143 Z M219.23913,143 C220.643855,143 221.782609,144.119288 221.782609,145.5 C221.782609,146.880712 220.643855,148 219.23913,148 C217.834406,148 216.695652,146.880712 216.695652,145.5 C216.695652,144.119288 217.834406,143 219.23913,143 Z M198.891304,143 C200.296029,143 201.434783,144.119288 201.434783,145.5 C201.434783,146.880712 200.296029,148 198.891304,148 C197.48658,148 196.347826,146.880712 196.347826,145.5 C196.347826,144.119288 197.48658,143 198.891304,143 Z M178.543478,143 C179.948203,143 181.086957,144.119288 181.086957,145.5 C181.086957,146.880712 179.948203,148 178.543478,148 C177.138754,148 176,146.880712 176,145.5 C176,144.119288 177.138754,143 178.543478,143 Z M137.934783,143 C139.339507,143 140.478261,144.119288 140.478261,145.5 C140.478261,146.880712 139.339507,148 137.934783,148 C136.530058,148 135.391304,146.880712 135.391304,145.5 C135.391304,144.119288 136.530058,143 137.934783,143 Z M66.7173913,123 C68.1221156,123 69.2608696,124.119288 69.2608696,125.5 C69.2608696,126.880712 68.1221156,128 66.7173913,128 C65.312667,128 64.173913,126.880712 64.173913,125.5 C64.173913,124.119288 65.312667,123 66.7173913,123 Z M87.0652174,123 C88.4699416,123 89.6086957,124.119288 89.6086957,125.5 C89.6086957,126.880712 88.4699416,128 87.0652174,128 C85.6604931,128 84.5217391,126.880712 84.5217391,125.5 C84.5217391,124.119288 85.6604931,123 87.0652174,123 Z M107.413043,123 C108.817768,123 109.956522,124.119288 109.956522,125.5 C109.956522,126.880712 108.817768,128 107.413043,128 C106.008319,128 104.869565,126.880712 104.869565,125.5 C104.869565,124.119288 106.008319,123 107.413043,123 Z M127.76087,123 C129.165594,123 130.304348,124.119288 130.304348,125.5 C130.304348,126.880712 129.165594,128 127.76087,128 C126.356145,128 125.217391,126.880712 125.217391,125.5 C125.217391,124.119288 126.356145,123 127.76087,123 Z M148.108696,123 C149.51342,123 150.652174,124.119288 150.652174,125.5 C150.652174,126.880712 149.51342,128 148.108696,128 C146.703971,128 145.565217,126.880712 145.565217,125.5 C145.565217,124.119288 146.703971,123 148.108696,123 Z M188.717391,123 C190.122116,123 191.26087,124.119288 191.26087,125.5 C191.26087,126.880712 190.122116,128 188.717391,128 C187.312667,128 186.173913,126.880712 186.173913,125.5 C186.173913,124.119288 187.312667,123 188.717391,123 Z M209.065217,123 C210.469942,123 211.608696,124.119288 211.608696,125.5 C211.608696,126.880712 210.469942,128 209.065217,128 C207.660493,128 206.521739,126.880712 206.521739,125.5 C206.521739,124.119288 207.660493,123 209.065217,123 Z M229.413043,123 C230.817768,123 231.956522,124.119288 231.956522,125.5 C231.956522,126.880712 230.817768,128 229.413043,128 C228.008319,128 226.869565,126.880712 226.869565,125.5 C226.869565,124.119288 228.008319,123 229.413043,123 Z M249.76087,123 C251.165594,123 252.304348,124.119288 252.304348,125.5 C252.304348,126.880712 251.165594,128 249.76087,128 C248.356145,128 247.217391,126.880712 247.217391,125.5 C247.217391,124.119288 248.356145,123 249.76087,123 Z M270.108696,123 C271.51342,123 272.652174,124.119288 272.652174,125.5 C272.652174,126.880712 271.51342,128 270.108696,128 C268.703971,128 267.565217,126.880712 267.565217,125.5 C267.565217,124.119288 268.703971,123 270.108696,123 Z M290.456522,123 C291.861246,123 293,124.119288 293,125.5 C293,126.880712 291.861246,128 290.456522,128 C289.051797,128 287.913043,126.880712 287.913043,125.5 C287.913043,124.119288 289.051797,123 290.456522,123 Z M168.456522,123 C169.861246,123 171,124.119288 171,125.5 C171,126.880712 169.861246,128 168.456522,128 C167.051797,128 165.913043,126.880712 165.913043,125.5 C165.913043,124.119288 167.051797,123 168.456522,123 Z M280.282609,102 C281.687333,102 282.826087,103.119288 282.826087,104.5 C282.826087,105.880712 281.687333,107 280.282609,107 C278.877884,107 277.73913,105.880712 277.73913,104.5 C277.73913,103.119288 278.877884,102 280.282609,102 Z M259.934783,102 C261.339507,102 262.478261,103.119288 262.478261,104.5 C262.478261,105.880712 261.339507,107 259.934783,107 C258.530058,107 257.391304,105.880712 257.391304,104.5 C257.391304,103.119288 258.530058,102 259.934783,102 Z M239.586957,102 C240.991681,102 242.130435,103.119288 242.130435,104.5 C242.130435,105.880712 240.991681,107 239.586957,107 C238.182232,107 237.043478,105.880712 237.043478,104.5 C237.043478,103.119288 238.182232,102 239.586957,102 Z M219.23913,102 C220.643855,102 221.782609,103.119288 221.782609,104.5 C221.782609,105.880712 220.643855,107 219.23913,107 C217.834406,107 216.695652,105.880712 216.695652,104.5 C216.695652,103.119288 217.834406,102 219.23913,102 Z M198.891304,102 C200.296029,102 201.434783,103.119288 201.434783,104.5 C201.434783,105.880712 200.296029,107 198.891304,107 C197.48658,107 196.347826,105.880712 196.347826,104.5 C196.347826,103.119288 197.48658,102 198.891304,102 Z M178.543478,102 C179.948203,102 181.086957,103.119288 181.086957,104.5 C181.086957,105.880712 179.948203,107 178.543478,107 C177.138754,107 176,105.880712 176,104.5 C176,103.119288 177.138754,102 178.543478,102 Z M158.282609,102 C159.687333,102 160.826087,103.119288 160.826087,104.5 C160.826087,105.880712 159.687333,107 158.282609,107 C156.877884,107 155.73913,105.880712 155.73913,104.5 C155.73913,103.119288 156.877884,102 158.282609,102 Z M137.934783,102 C139.339507,102 140.478261,103.119288 140.478261,104.5 C140.478261,105.880712 139.339507,107 137.934783,107 C136.530058,107 135.391304,105.880712 135.391304,104.5 C135.391304,103.119288 136.530058,102 137.934783,102 Z M117.586957,102 C118.991681,102 120.130435,103.119288 120.130435,104.5 C120.130435,105.880712 118.991681,107 117.586957,107 C116.182232,107 115.043478,105.880712 115.043478,104.5 C115.043478,103.119288 116.182232,102 117.586957,102 Z M97.2391304,102 C98.6438547,102 99.7826087,103.119288 99.7826087,104.5 C99.7826087,105.880712 98.6438547,107 97.2391304,107 C95.8344062,107 94.6956522,105.880712 94.6956522,104.5 C94.6956522,103.119288 95.8344062,102 97.2391304,102 Z M76.8913043,102 C78.2960286,102 79.4347826,103.119288 79.4347826,104.5 C79.4347826,105.880712 78.2960286,107 76.8913043,107 C75.4865801,107 74.3478261,105.880712 74.3478261,104.5 C74.3478261,103.119288 75.4865801,102 76.8913043,102 Z M56.5434783,102 C57.9482025,102 59.0869565,103.119288 59.0869565,104.5 C59.0869565,105.880712 57.9482025,107 56.5434783,107 C55.138754,107 54,105.880712 54,104.5 C54,103.119288 55.138754,102 56.5434783,102 Z M87.0652174,82 C88.4699416,82 89.6086957,83.1192881 89.6086957,84.5 C89.6086957,85.8807119 88.4699416,87 87.0652174,87 C85.6604931,87 84.5217391,85.8807119 84.5217391,84.5 C84.5217391,83.1192881 85.6604931,82 87.0652174,82 Z M107.413043,82 C108.817768,82 109.956522,83.1192881 109.956522,84.5 C109.956522,85.8807119 108.817768,87 107.413043,87 C106.008319,87 104.869565,85.8807119 104.869565,84.5 C104.869565,83.1192881 106.008319,82 107.413043,82 Z M127.76087,82 C129.165594,82 130.304348,83.1192881 130.304348,84.5 C130.304348,85.8807119 129.165594,87 127.76087,87 C126.356145,87 125.217391,85.8807119 125.217391,84.5 C125.217391,83.1192881 126.356145,82 127.76087,82 Z M148.108696,82 C149.51342,82 150.652174,83.1192881 150.652174,84.5 C150.652174,85.8807119 149.51342,87 148.108696,87 C146.703971,87 145.565217,85.8807119 145.565217,84.5 C145.565217,83.1192881 146.703971,82 148.108696,82 Z M168.456522,82 C169.861246,82 171,83.1192881 171,84.5 C171,85.8807119 169.861246,87 168.456522,87 C167.051797,87 165.913043,85.8807119 165.913043,84.5 C165.913043,83.1192881 167.051797,82 168.456522,82 Z M66.7173913,82 C68.1221156,82 69.2608696,83.1192881 69.2608696,84.5 C69.2608696,85.8807119 68.1221156,87 66.7173913,87 C65.312667,87 64.173913,85.8807119 64.173913,84.5 C64.173913,83.1192881 65.312667,82 66.7173913,82 Z M209.065217,82 C210.469942,82 211.608696,83.1192881 211.608696,84.5 C211.608696,85.8807119 210.469942,87 209.065217,87 C207.660493,87 206.521739,85.8807119 206.521739,84.5 C206.521739,83.1192881 207.660493,82 209.065217,82 Z M229.413043,82 C230.817768,82 231.956522,83.1192881 231.956522,84.5 C231.956522,85.8807119 230.817768,87 229.413043,87 C228.008319,87 226.869565,85.8807119 226.869565,84.5 C226.869565,83.1192881 228.008319,82 229.413043,82 Z M249.76087,82 C251.165594,82 252.304348,83.1192881 252.304348,84.5 C252.304348,85.8807119 251.165594,87 249.76087,87 C248.356145,87 247.217391,85.8807119 247.217391,84.5 C247.217391,83.1192881 248.356145,82 249.76087,82 Z M270.108696,82 C271.51342,82 272.652174,83.1192881 272.652174,84.5 C272.652174,85.8807119 271.51342,87 270.108696,87 C268.703971,87 267.565217,85.8807119 267.565217,84.5 C267.565217,83.1192881 268.703971,82 270.108696,82 Z M290.456522,82 C291.861246,82 293,83.1192881 293,84.5 C293,85.8807119 291.861246,87 290.456522,87 C289.051797,87 287.913043,85.8807119 287.913043,84.5 C287.913043,83.1192881 289.051797,82 290.456522,82 Z M188.717391,82 C190.122116,82 191.26087,83.1192881 191.26087,84.5 C191.26087,85.8807119 190.122116,87 188.717391,87 C187.312667,87 186.173913,85.8807119 186.173913,84.5 C186.173913,83.1192881 187.312667,82 188.717391,82 Z M158.282609,61 C159.687333,61 160.826087,62.1192881 160.826087,63.5 C160.826087,64.8807119 159.687333,66 158.282609,66 C156.877884,66 155.73913,64.8807119 155.73913,63.5 C155.73913,62.1192881 156.877884,61 158.282609,61 Z M137.934783,61 C139.339507,61 140.478261,62.1192881 140.478261,63.5 C140.478261,64.8807119 139.339507,66 137.934783,66 C136.530058,66 135.391304,64.8807119 135.391304,63.5 C135.391304,62.1192881 136.530058,61 137.934783,61 Z M117.586957,61 C118.991681,61 120.130435,62.1192881 120.130435,63.5 C120.130435,64.8807119 118.991681,66 117.586957,66 C116.182232,66 115.043478,64.8807119 115.043478,63.5 C115.043478,62.1192881 116.182232,61 117.586957,61 Z M97.2391304,61 C98.6438547,61 99.7826087,62.1192881 99.7826087,63.5 C99.7826087,64.8807119 98.6438547,66 97.2391304,66 C95.8344062,66 94.6956522,64.8807119 94.6956522,63.5 C94.6956522,62.1192881 95.8344062,61 97.2391304,61 Z M76.8913043,61 C78.2960286,61 79.4347826,62.1192881 79.4347826,63.5 C79.4347826,64.8807119 78.2960286,66 76.8913043,66 C75.4865801,66 74.3478261,64.8807119 74.3478261,63.5 C74.3478261,62.1192881 75.4865801,61 76.8913043,61 Z M56.5434783,61 C57.9482025,61 59.0869565,62.1192881 59.0869565,63.5 C59.0869565,64.8807119 57.9482025,66 56.5434783,66 C55.138754,66 54,64.8807119 54,63.5 C54,62.1192881 55.138754,61 56.5434783,61 Z M280.282609,61 C281.687333,61 282.826087,62.1192881 282.826087,63.5 C282.826087,64.8807119 281.687333,66 280.282609,66 C278.877884,66 277.73913,64.8807119 277.73913,63.5 C277.73913,62.1192881 278.877884,61 280.282609,61 Z M259.934783,61 C261.339507,61 262.478261,62.1192881 262.478261,63.5 C262.478261,64.8807119 261.339507,66 259.934783,66 C258.530058,66 257.391304,64.8807119 257.391304,63.5 C257.391304,62.1192881 258.530058,61 259.934783,61 Z M239.586957,61 C240.991681,61 242.130435,62.1192881 242.130435,63.5 C242.130435,64.8807119 240.991681,66 239.586957,66 C238.182232,66 237.043478,64.8807119 237.043478,63.5 C237.043478,62.1192881 238.182232,61 239.586957,61 Z M219.23913,61 C220.643855,61 221.782609,62.1192881 221.782609,63.5 C221.782609,64.8807119 220.643855,66 219.23913,66 C217.834406,66 216.695652,64.8807119 216.695652,63.5 C216.695652,62.1192881 217.834406,61 219.23913,61 Z M198.891304,61 C200.296029,61 201.434783,62.1192881 201.434783,63.5 C201.434783,64.8807119 200.296029,66 198.891304,66 C197.48658,66 196.347826,64.8807119 196.347826,63.5 C196.347826,62.1192881 197.48658,61 198.891304,61 Z M178.543478,61 C179.948203,61 181.086957,62.1192881 181.086957,63.5 C181.086957,64.8807119 179.948203,66 178.543478,66 C177.138754,66 176,64.8807119 176,63.5 C176,62.1192881 177.138754,61 178.543478,61 Z M168.456522,41 C169.861246,41 171,42.1192881 171,43.5 C171,44.8807119 169.861246,46 168.456522,46 C167.051797,46 165.913043,44.8807119 165.913043,43.5 C165.913043,42.1192881 167.051797,41 168.456522,41 Z M66.7173913,41 C68.1221156,41 69.2608696,42.1192881 69.2608696,43.5 C69.2608696,44.8807119 68.1221156,46 66.7173913,46 C65.312667,46 64.173913,44.8807119 64.173913,43.5 C64.173913,42.1192881 65.312667,41 66.7173913,41 Z M87.0652174,41 C88.4699416,41 89.6086957,42.1192881 89.6086957,43.5 C89.6086957,44.8807119 88.4699416,46 87.0652174,46 C85.6604931,46 84.5217391,44.8807119 84.5217391,43.5 C84.5217391,42.1192881 85.6604931,41 87.0652174,41 Z M107.413043,41 C108.817768,41 109.956522,42.1192881 109.956522,43.5 C109.956522,44.8807119 108.817768,46 107.413043,46 C106.008319,46 104.869565,44.8807119 104.869565,43.5 C104.869565,42.1192881 106.008319,41 107.413043,41 Z M127.76087,41 C129.165594,41 130.304348,42.1192881 130.304348,43.5 C130.304348,44.8807119 129.165594,46 127.76087,46 C126.356145,46 125.217391,44.8807119 125.217391,43.5 C125.217391,42.1192881 126.356145,41 127.76087,41 Z M148.108696,41 C149.51342,41 150.652174,42.1192881 150.652174,43.5 C150.652174,44.8807119 149.51342,46 148.108696,46 C146.703971,46 145.565217,44.8807119 145.565217,43.5 C145.565217,42.1192881 146.703971,41 148.108696,41 Z M290.456522,41 C291.861246,41 293,42.1192881 293,43.5 C293,44.8807119 291.861246,46 290.456522,46 C289.051797,46 287.913043,44.8807119 287.913043,43.5 C287.913043,42.1192881 289.051797,41 290.456522,41 Z M188.717391,41 C190.122116,41 191.26087,42.1192881 191.26087,43.5 C191.26087,44.8807119 190.122116,46 188.717391,46 C187.312667,46 186.173913,44.8807119 186.173913,43.5 C186.173913,42.1192881 187.312667,41 188.717391,41 Z M209.065217,41 C210.469942,41 211.608696,42.1192881 211.608696,43.5 C211.608696,44.8807119 210.469942,46 209.065217,46 C207.660493,46 206.521739,44.8807119 206.521739,43.5 C206.521739,42.1192881 207.660493,41 209.065217,41 Z M229.413043,41 C230.817768,41 231.956522,42.1192881 231.956522,43.5 C231.956522,44.8807119 230.817768,46 229.413043,46 C228.008319,46 226.869565,44.8807119 226.869565,43.5 C226.869565,42.1192881 228.008319,41 229.413043,41 Z M249.76087,41 C251.165594,41 252.304348,42.1192881 252.304348,43.5 C252.304348,44.8807119 251.165594,46 249.76087,46 C248.356145,46 247.217391,44.8807119 247.217391,43.5 C247.217391,42.1192881 248.356145,41 249.76087,41 Z M270.108696,41 C271.51342,41 272.652174,42.1192881 272.652174,43.5 C272.652174,44.8807119 271.51342,46 270.108696,46 C268.703971,46 267.565217,44.8807119 267.565217,43.5 C267.565217,42.1192881 268.703971,41 270.108696,41 Z M280.282609,20 C281.687333,20 282.826087,21.1192881 282.826087,22.5 C282.826087,23.8807119 281.687333,25 280.282609,25 C278.877884,25 277.73913,23.8807119 277.73913,22.5 C277.73913,21.1192881 278.877884,20 280.282609,20 Z M259.934783,20 C261.339507,20 262.478261,21.1192881 262.478261,22.5 C262.478261,23.8807119 261.339507,25 259.934783,25 C258.530058,25 257.391304,23.8807119 257.391304,22.5 C257.391304,21.1192881 258.530058,20 259.934783,20 Z M239.586957,20 C240.991681,20 242.130435,21.1192881 242.130435,22.5 C242.130435,23.8807119 240.991681,25 239.586957,25 C238.182232,25 237.043478,23.8807119 237.043478,22.5 C237.043478,21.1192881 238.182232,20 239.586957,20 Z M219.23913,20 C220.643855,20 221.782609,21.1192881 221.782609,22.5 C221.782609,23.8807119 220.643855,25 219.23913,25 C217.834406,25 216.695652,23.8807119 216.695652,22.5 C216.695652,21.1192881 217.834406,20 219.23913,20 Z M198.891304,20 C200.296029,20 201.434783,21.1192881 201.434783,22.5 C201.434783,23.8807119 200.296029,25 198.891304,25 C197.48658,25 196.347826,23.8807119 196.347826,22.5 C196.347826,21.1192881 197.48658,20 198.891304,20 Z M178.543478,20 C179.948203,20 181.086957,21.1192881 181.086957,22.5 C181.086957,23.8807119 179.948203,25 178.543478,25 C177.138754,25 176,23.8807119 176,22.5 C176,21.1192881 177.138754,20 178.543478,20 Z M158.282609,20 C159.687333,20 160.826087,21.1192881 160.826087,22.5 C160.826087,23.8807119 159.687333,25 158.282609,25 C156.877884,25 155.73913,23.8807119 155.73913,22.5 C155.73913,21.1192881 156.877884,20 158.282609,20 Z M137.934783,20 C139.339507,20 140.478261,21.1192881 140.478261,22.5 C140.478261,23.8807119 139.339507,25 137.934783,25 C136.530058,25 135.391304,23.8807119 135.391304,22.5 C135.391304,21.1192881 136.530058,20 137.934783,20 Z M117.586957,20 C118.991681,20 120.130435,21.1192881 120.130435,22.5 C120.130435,23.8807119 118.991681,25 117.586957,25 C116.182232,25 115.043478,23.8807119 115.043478,22.5 C115.043478,21.1192881 116.182232,20 117.586957,20 Z M97.2391304,20 C98.6438547,20 99.7826087,21.1192881 99.7826087,22.5 C99.7826087,23.8807119 98.6438547,25 97.2391304,25 C95.8344062,25 94.6956522,23.8807119 94.6956522,22.5 C94.6956522,21.1192881 95.8344062,20 97.2391304,20 Z M76.8913043,20 C78.2960286,20 79.4347826,21.1192881 79.4347826,22.5 C79.4347826,23.8807119 78.2960286,25 76.8913043,25 C75.4865801,25 74.3478261,23.8807119 74.3478261,22.5 C74.3478261,21.1192881 75.4865801,20 76.8913043,20 Z M56.5434783,20 C57.9482025,20 59.0869565,21.1192881 59.0869565,22.5 C59.0869565,23.8807119 57.9482025,25 56.5434783,25 C55.138754,25 54,23.8807119 54,22.5 C54,21.1192881 55.138754,20 56.5434783,20 Z M188.717391,0 C190.122116,0 191.26087,1.11928813 191.26087,2.5 C191.26087,3.88071187 190.122116,5 188.717391,5 C187.312667,5 186.173913,3.88071187 186.173913,2.5 C186.173913,1.11928813 187.312667,0 188.717391,0 Z M87.0652174,0 C88.4699416,0 89.6086957,1.11928813 89.6086957,2.5 C89.6086957,3.88071187 88.4699416,5 87.0652174,5 C85.6604931,5 84.5217391,3.88071187 84.5217391,2.5 C84.5217391,1.11928813 85.6604931,0 87.0652174,0 Z M107.413043,0 C108.817768,0 109.956522,1.11928813 109.956522,2.5 C109.956522,3.88071187 108.817768,5 107.413043,5 C106.008319,5 104.869565,3.88071187 104.869565,2.5 C104.869565,1.11928813 106.008319,0 107.413043,0 Z M127.76087,0 C129.165594,0 130.304348,1.11928813 130.304348,2.5 C130.304348,3.88071187 129.165594,5 127.76087,5 C126.356145,5 125.217391,3.88071187 125.217391,2.5 C125.217391,1.11928813 126.356145,0 127.76087,0 Z M148.108696,0 C149.51342,0 150.652174,1.11928813 150.652174,2.5 C150.652174,3.88071187 149.51342,5 148.108696,5 C146.703971,5 145.565217,3.88071187 145.565217,2.5 C145.565217,1.11928813 146.703971,0 148.108696,0 Z M168.456522,0 C169.861246,0 171,1.11928813 171,2.5 C171,3.88071187 169.861246,5 168.456522,5 C167.051797,5 165.913043,3.88071187 165.913043,2.5 C165.913043,1.11928813 167.051797,0 168.456522,0 Z M66.7173913,0 C68.1221156,0 69.2608696,1.11928813 69.2608696,2.5 C69.2608696,3.88071187 68.1221156,5 66.7173913,5 C65.312667,5 64.173913,3.88071187 64.173913,2.5 C64.173913,1.11928813 65.312667,0 66.7173913,0 Z M209.065217,0 C210.469942,0 211.608696,1.11928813 211.608696,2.5 C211.608696,3.88071187 210.469942,5 209.065217,5 C207.660493,5 206.521739,3.88071187 206.521739,2.5 C206.521739,1.11928813 207.660493,0 209.065217,0 Z M229.413043,0 C230.817768,0 231.956522,1.11928813 231.956522,2.5 C231.956522,3.88071187 230.817768,5 229.413043,5 C228.008319,5 226.869565,3.88071187 226.869565,2.5 C226.869565,1.11928813 228.008319,0 229.413043,0 Z M249.76087,0 C251.165594,0 252.304348,1.11928813 252.304348,2.5 C252.304348,3.88071187 251.165594,5 249.76087,5 C248.356145,5 247.217391,3.88071187 247.217391,2.5 C247.217391,1.11928813 248.356145,0 249.76087,0 Z M270.108696,0 C271.51342,0 272.652174,1.11928813 272.652174,2.5 C272.652174,3.88071187 271.51342,5 270.108696,5 C268.703971,5 267.565217,3.88071187 267.565217,2.5 C267.565217,1.11928813 268.703971,0 270.108696,0 Z M290.456522,0 C291.861246,0 293,1.11928813 293,2.5 C293,3.88071187 291.861246,5 290.456522,5 C289.051797,5 287.913043,3.88071187 287.913043,2.5 C287.913043,1.11928813 289.051797,0 290.456522,0 Z" id="Combined-Shape" fill="#3B55A3" fill-rule="nonzero" opacity="0.554439" mask="url(#mask-2)"></path>
                <path d="M1031.28261,604 C1032.68733,604 1033.82609,605.119288 1033.82609,606.5 C1033.82609,607.880712 1032.68733,609 1031.28261,609 C1029.87788,609 1028.73913,607.880712 1028.73913,606.5 C1028.73913,605.119288 1029.87788,604 1031.28261,604 Z M990.586957,604 C991.991681,604 993.130435,605.119288 993.130435,606.5 C993.130435,607.880712 991.991681,609 990.586957,609 C989.182232,609 988.043478,607.880712 988.043478,606.5 C988.043478,605.119288 989.182232,604 990.586957,604 Z M970.23913,604 C971.643855,604 972.782609,605.119288 972.782609,606.5 C972.782609,607.880712 971.643855,609 970.23913,609 C968.834406,609 967.695652,607.880712 967.695652,606.5 C967.695652,605.119288 968.834406,604 970.23913,604 Z M949.891304,604 C951.296029,604 952.434783,605.119288 952.434783,606.5 C952.434783,607.880712 951.296029,609 949.891304,609 C948.48658,609 947.347826,607.880712 947.347826,606.5 C947.347826,605.119288 948.48658,604 949.891304,604 Z M929.543478,604 C930.948203,604 932.086957,605.119288 932.086957,606.5 C932.086957,607.880712 930.948203,609 929.543478,609 C928.138754,609 927,607.880712 927,606.5 C927,605.119288 928.138754,604 929.543478,604 Z M1153.28261,604 C1154.68733,604 1155.82609,605.119288 1155.82609,606.5 C1155.82609,607.880712 1154.68733,609 1153.28261,609 C1151.87788,609 1150.73913,607.880712 1150.73913,606.5 C1150.73913,605.119288 1151.87788,604 1153.28261,604 Z M1132.93478,604 C1134.33951,604 1135.47826,605.119288 1135.47826,606.5 C1135.47826,607.880712 1134.33951,609 1132.93478,609 C1131.53006,609 1130.3913,607.880712 1130.3913,606.5 C1130.3913,605.119288 1131.53006,604 1132.93478,604 Z M1112.58696,604 C1113.99168,604 1115.13043,605.119288 1115.13043,606.5 C1115.13043,607.880712 1113.99168,609 1112.58696,609 C1111.18223,609 1110.04348,607.880712 1110.04348,606.5 C1110.04348,605.119288 1111.18223,604 1112.58696,604 Z M1092.23913,604 C1093.64385,604 1094.78261,605.119288 1094.78261,606.5 C1094.78261,607.880712 1093.64385,609 1092.23913,609 C1090.83441,609 1089.69565,607.880712 1089.69565,606.5 C1089.69565,605.119288 1090.83441,604 1092.23913,604 Z M1071.8913,604 C1073.29603,604 1074.43478,605.119288 1074.43478,606.5 C1074.43478,607.880712 1073.29603,609 1071.8913,609 C1070.48658,609 1069.34783,607.880712 1069.34783,606.5 C1069.34783,605.119288 1070.48658,604 1071.8913,604 Z M1051.54348,604 C1052.9482,604 1054.08696,605.119288 1054.08696,606.5 C1054.08696,607.880712 1052.9482,609 1051.54348,609 C1050.13875,609 1049,607.880712 1049,606.5 C1049,605.119288 1050.13875,604 1051.54348,604 Z M1010.93478,604 C1012.33951,604 1013.47826,605.119288 1013.47826,606.5 C1013.47826,607.880712 1012.33951,609 1010.93478,609 C1009.53006,609 1008.3913,607.880712 1008.3913,606.5 C1008.3913,605.119288 1009.53006,604 1010.93478,604 Z M939.717391,584 C941.122116,584 942.26087,585.119288 942.26087,586.5 C942.26087,587.880712 941.122116,589 939.717391,589 C938.312667,589 937.173913,587.880712 937.173913,586.5 C937.173913,585.119288 938.312667,584 939.717391,584 Z M960.065217,584 C961.469942,584 962.608696,585.119288 962.608696,586.5 C962.608696,587.880712 961.469942,589 960.065217,589 C958.660493,589 957.521739,587.880712 957.521739,586.5 C957.521739,585.119288 958.660493,584 960.065217,584 Z M980.413043,584 C981.817768,584 982.956522,585.119288 982.956522,586.5 C982.956522,587.880712 981.817768,589 980.413043,589 C979.008319,589 977.869565,587.880712 977.869565,586.5 C977.869565,585.119288 979.008319,584 980.413043,584 Z M1000.76087,584 C1002.16559,584 1003.30435,585.119288 1003.30435,586.5 C1003.30435,587.880712 1002.16559,589 1000.76087,589 C999.356145,589 998.217391,587.880712 998.217391,586.5 C998.217391,585.119288 999.356145,584 1000.76087,584 Z M1021.1087,584 C1022.51342,584 1023.65217,585.119288 1023.65217,586.5 C1023.65217,587.880712 1022.51342,589 1021.1087,589 C1019.70397,589 1018.56522,587.880712 1018.56522,586.5 C1018.56522,585.119288 1019.70397,584 1021.1087,584 Z M1061.71739,584 C1063.12212,584 1064.26087,585.119288 1064.26087,586.5 C1064.26087,587.880712 1063.12212,589 1061.71739,589 C1060.31267,589 1059.17391,587.880712 1059.17391,586.5 C1059.17391,585.119288 1060.31267,584 1061.71739,584 Z M1082.06522,584 C1083.46994,584 1084.6087,585.119288 1084.6087,586.5 C1084.6087,587.880712 1083.46994,589 1082.06522,589 C1080.66049,589 1079.52174,587.880712 1079.52174,586.5 C1079.52174,585.119288 1080.66049,584 1082.06522,584 Z M1102.41304,584 C1103.81777,584 1104.95652,585.119288 1104.95652,586.5 C1104.95652,587.880712 1103.81777,589 1102.41304,589 C1101.00832,589 1099.86957,587.880712 1099.86957,586.5 C1099.86957,585.119288 1101.00832,584 1102.41304,584 Z M1122.76087,584 C1124.16559,584 1125.30435,585.119288 1125.30435,586.5 C1125.30435,587.880712 1124.16559,589 1122.76087,589 C1121.35615,589 1120.21739,587.880712 1120.21739,586.5 C1120.21739,585.119288 1121.35615,584 1122.76087,584 Z M1143.1087,584 C1144.51342,584 1145.65217,585.119288 1145.65217,586.5 C1145.65217,587.880712 1144.51342,589 1143.1087,589 C1141.70397,589 1140.56522,587.880712 1140.56522,586.5 C1140.56522,585.119288 1141.70397,584 1143.1087,584 Z M1163.45652,584 C1164.86125,584 1166,585.119288 1166,586.5 C1166,587.880712 1164.86125,589 1163.45652,589 C1162.0518,589 1160.91304,587.880712 1160.91304,586.5 C1160.91304,585.119288 1162.0518,584 1163.45652,584 Z M1041.45652,584 C1042.86125,584 1044,585.119288 1044,586.5 C1044,587.880712 1042.86125,589 1041.45652,589 C1040.0518,589 1038.91304,587.880712 1038.91304,586.5 C1038.91304,585.119288 1040.0518,584 1041.45652,584 Z M1153.28261,563 C1154.68733,563 1155.82609,564.119288 1155.82609,565.5 C1155.82609,566.880712 1154.68733,568 1153.28261,568 C1151.87788,568 1150.73913,566.880712 1150.73913,565.5 C1150.73913,564.119288 1151.87788,563 1153.28261,563 Z M1132.93478,563 C1134.33951,563 1135.47826,564.119288 1135.47826,565.5 C1135.47826,566.880712 1134.33951,568 1132.93478,568 C1131.53006,568 1130.3913,566.880712 1130.3913,565.5 C1130.3913,564.119288 1131.53006,563 1132.93478,563 Z M1112.58696,563 C1113.99168,563 1115.13043,564.119288 1115.13043,565.5 C1115.13043,566.880712 1113.99168,568 1112.58696,568 C1111.18223,568 1110.04348,566.880712 1110.04348,565.5 C1110.04348,564.119288 1111.18223,563 1112.58696,563 Z M1092.23913,563 C1093.64385,563 1094.78261,564.119288 1094.78261,565.5 C1094.78261,566.880712 1093.64385,568 1092.23913,568 C1090.83441,568 1089.69565,566.880712 1089.69565,565.5 C1089.69565,564.119288 1090.83441,563 1092.23913,563 Z M1071.8913,563 C1073.29603,563 1074.43478,564.119288 1074.43478,565.5 C1074.43478,566.880712 1073.29603,568 1071.8913,568 C1070.48658,568 1069.34783,566.880712 1069.34783,565.5 C1069.34783,564.119288 1070.48658,563 1071.8913,563 Z M1051.54348,563 C1052.9482,563 1054.08696,564.119288 1054.08696,565.5 C1054.08696,566.880712 1052.9482,568 1051.54348,568 C1050.13875,568 1049,566.880712 1049,565.5 C1049,564.119288 1050.13875,563 1051.54348,563 Z M1031.28261,563 C1032.68733,563 1033.82609,564.119288 1033.82609,565.5 C1033.82609,566.880712 1032.68733,568 1031.28261,568 C1029.87788,568 1028.73913,566.880712 1028.73913,565.5 C1028.73913,564.119288 1029.87788,563 1031.28261,563 Z M1010.93478,563 C1012.33951,563 1013.47826,564.119288 1013.47826,565.5 C1013.47826,566.880712 1012.33951,568 1010.93478,568 C1009.53006,568 1008.3913,566.880712 1008.3913,565.5 C1008.3913,564.119288 1009.53006,563 1010.93478,563 Z M990.586957,563 C991.991681,563 993.130435,564.119288 993.130435,565.5 C993.130435,566.880712 991.991681,568 990.586957,568 C989.182232,568 988.043478,566.880712 988.043478,565.5 C988.043478,564.119288 989.182232,563 990.586957,563 Z M970.23913,563 C971.643855,563 972.782609,564.119288 972.782609,565.5 C972.782609,566.880712 971.643855,568 970.23913,568 C968.834406,568 967.695652,566.880712 967.695652,565.5 C967.695652,564.119288 968.834406,563 970.23913,563 Z M949.891304,563 C951.296029,563 952.434783,564.119288 952.434783,565.5 C952.434783,566.880712 951.296029,568 949.891304,568 C948.48658,568 947.347826,566.880712 947.347826,565.5 C947.347826,564.119288 948.48658,563 949.891304,563 Z M929.543478,563 C930.948203,563 932.086957,564.119288 932.086957,565.5 C932.086957,566.880712 930.948203,568 929.543478,568 C928.138754,568 927,566.880712 927,565.5 C927,564.119288 928.138754,563 929.543478,563 Z M960.065217,543 C961.469942,543 962.608696,544.119288 962.608696,545.5 C962.608696,546.880712 961.469942,548 960.065217,548 C958.660493,548 957.521739,546.880712 957.521739,545.5 C957.521739,544.119288 958.660493,543 960.065217,543 Z M980.413043,543 C981.817768,543 982.956522,544.119288 982.956522,545.5 C982.956522,546.880712 981.817768,548 980.413043,548 C979.008319,548 977.869565,546.880712 977.869565,545.5 C977.869565,544.119288 979.008319,543 980.413043,543 Z M1000.76087,543 C1002.16559,543 1003.30435,544.119288 1003.30435,545.5 C1003.30435,546.880712 1002.16559,548 1000.76087,548 C999.356145,548 998.217391,546.880712 998.217391,545.5 C998.217391,544.119288 999.356145,543 1000.76087,543 Z M1021.1087,543 C1022.51342,543 1023.65217,544.119288 1023.65217,545.5 C1023.65217,546.880712 1022.51342,548 1021.1087,548 C1019.70397,548 1018.56522,546.880712 1018.56522,545.5 C1018.56522,544.119288 1019.70397,543 1021.1087,543 Z M1041.45652,543 C1042.86125,543 1044,544.119288 1044,545.5 C1044,546.880712 1042.86125,548 1041.45652,548 C1040.0518,548 1038.91304,546.880712 1038.91304,545.5 C1038.91304,544.119288 1040.0518,543 1041.45652,543 Z M939.717391,543 C941.122116,543 942.26087,544.119288 942.26087,545.5 C942.26087,546.880712 941.122116,548 939.717391,548 C938.312667,548 937.173913,546.880712 937.173913,545.5 C937.173913,544.119288 938.312667,543 939.717391,543 Z M1082.06522,543 C1083.46994,543 1084.6087,544.119288 1084.6087,545.5 C1084.6087,546.880712 1083.46994,548 1082.06522,548 C1080.66049,548 1079.52174,546.880712 1079.52174,545.5 C1079.52174,544.119288 1080.66049,543 1082.06522,543 Z M1102.41304,543 C1103.81777,543 1104.95652,544.119288 1104.95652,545.5 C1104.95652,546.880712 1103.81777,548 1102.41304,548 C1101.00832,548 1099.86957,546.880712 1099.86957,545.5 C1099.86957,544.119288 1101.00832,543 1102.41304,543 Z M1122.76087,543 C1124.16559,543 1125.30435,544.119288 1125.30435,545.5 C1125.30435,546.880712 1124.16559,548 1122.76087,548 C1121.35615,548 1120.21739,546.880712 1120.21739,545.5 C1120.21739,544.119288 1121.35615,543 1122.76087,543 Z M1143.1087,543 C1144.51342,543 1145.65217,544.119288 1145.65217,545.5 C1145.65217,546.880712 1144.51342,548 1143.1087,548 C1141.70397,548 1140.56522,546.880712 1140.56522,545.5 C1140.56522,544.119288 1141.70397,543 1143.1087,543 Z M1163.45652,543 C1164.86125,543 1166,544.119288 1166,545.5 C1166,546.880712 1164.86125,548 1163.45652,548 C1162.0518,548 1160.91304,546.880712 1160.91304,545.5 C1160.91304,544.119288 1162.0518,543 1163.45652,543 Z M1061.71739,543 C1063.12212,543 1064.26087,544.119288 1064.26087,545.5 C1064.26087,546.880712 1063.12212,548 1061.71739,548 C1060.31267,548 1059.17391,546.880712 1059.17391,545.5 C1059.17391,544.119288 1060.31267,543 1061.71739,543 Z M1031.28261,522 C1032.68733,522 1033.82609,523.119288 1033.82609,524.5 C1033.82609,525.880712 1032.68733,527 1031.28261,527 C1029.87788,527 1028.73913,525.880712 1028.73913,524.5 C1028.73913,523.119288 1029.87788,522 1031.28261,522 Z M1010.93478,522 C1012.33951,522 1013.47826,523.119288 1013.47826,524.5 C1013.47826,525.880712 1012.33951,527 1010.93478,527 C1009.53006,527 1008.3913,525.880712 1008.3913,524.5 C1008.3913,523.119288 1009.53006,522 1010.93478,522 Z M990.586957,522 C991.991681,522 993.130435,523.119288 993.130435,524.5 C993.130435,525.880712 991.991681,527 990.586957,527 C989.182232,527 988.043478,525.880712 988.043478,524.5 C988.043478,523.119288 989.182232,522 990.586957,522 Z M970.23913,522 C971.643855,522 972.782609,523.119288 972.782609,524.5 C972.782609,525.880712 971.643855,527 970.23913,527 C968.834406,527 967.695652,525.880712 967.695652,524.5 C967.695652,523.119288 968.834406,522 970.23913,522 Z M949.891304,522 C951.296029,522 952.434783,523.119288 952.434783,524.5 C952.434783,525.880712 951.296029,527 949.891304,527 C948.48658,527 947.347826,525.880712 947.347826,524.5 C947.347826,523.119288 948.48658,522 949.891304,522 Z M929.543478,522 C930.948203,522 932.086957,523.119288 932.086957,524.5 C932.086957,525.880712 930.948203,527 929.543478,527 C928.138754,527 927,525.880712 927,524.5 C927,523.119288 928.138754,522 929.543478,522 Z M1153.28261,522 C1154.68733,522 1155.82609,523.119288 1155.82609,524.5 C1155.82609,525.880712 1154.68733,527 1153.28261,527 C1151.87788,527 1150.73913,525.880712 1150.73913,524.5 C1150.73913,523.119288 1151.87788,522 1153.28261,522 Z M1132.93478,522 C1134.33951,522 1135.47826,523.119288 1135.47826,524.5 C1135.47826,525.880712 1134.33951,527 1132.93478,527 C1131.53006,527 1130.3913,525.880712 1130.3913,524.5 C1130.3913,523.119288 1131.53006,522 1132.93478,522 Z M1112.58696,522 C1113.99168,522 1115.13043,523.119288 1115.13043,524.5 C1115.13043,525.880712 1113.99168,527 1112.58696,527 C1111.18223,527 1110.04348,525.880712 1110.04348,524.5 C1110.04348,523.119288 1111.18223,522 1112.58696,522 Z M1092.23913,522 C1093.64385,522 1094.78261,523.119288 1094.78261,524.5 C1094.78261,525.880712 1093.64385,527 1092.23913,527 C1090.83441,527 1089.69565,525.880712 1089.69565,524.5 C1089.69565,523.119288 1090.83441,522 1092.23913,522 Z M1071.8913,522 C1073.29603,522 1074.43478,523.119288 1074.43478,524.5 C1074.43478,525.880712 1073.29603,527 1071.8913,527 C1070.48658,527 1069.34783,525.880712 1069.34783,524.5 C1069.34783,523.119288 1070.48658,522 1071.8913,522 Z M1051.54348,522 C1052.9482,522 1054.08696,523.119288 1054.08696,524.5 C1054.08696,525.880712 1052.9482,527 1051.54348,527 C1050.13875,527 1049,525.880712 1049,524.5 C1049,523.119288 1050.13875,522 1051.54348,522 Z M1041.45652,502 C1042.86125,502 1044,503.119288 1044,504.5 C1044,505.880712 1042.86125,507 1041.45652,507 C1040.0518,507 1038.91304,505.880712 1038.91304,504.5 C1038.91304,503.119288 1040.0518,502 1041.45652,502 Z M939.717391,502 C941.122116,502 942.26087,503.119288 942.26087,504.5 C942.26087,505.880712 941.122116,507 939.717391,507 C938.312667,507 937.173913,505.880712 937.173913,504.5 C937.173913,503.119288 938.312667,502 939.717391,502 Z M960.065217,502 C961.469942,502 962.608696,503.119288 962.608696,504.5 C962.608696,505.880712 961.469942,507 960.065217,507 C958.660493,507 957.521739,505.880712 957.521739,504.5 C957.521739,503.119288 958.660493,502 960.065217,502 Z M980.413043,502 C981.817768,502 982.956522,503.119288 982.956522,504.5 C982.956522,505.880712 981.817768,507 980.413043,507 C979.008319,507 977.869565,505.880712 977.869565,504.5 C977.869565,503.119288 979.008319,502 980.413043,502 Z M1000.76087,502 C1002.16559,502 1003.30435,503.119288 1003.30435,504.5 C1003.30435,505.880712 1002.16559,507 1000.76087,507 C999.356145,507 998.217391,505.880712 998.217391,504.5 C998.217391,503.119288 999.356145,502 1000.76087,502 Z M1021.1087,502 C1022.51342,502 1023.65217,503.119288 1023.65217,504.5 C1023.65217,505.880712 1022.51342,507 1021.1087,507 C1019.70397,507 1018.56522,505.880712 1018.56522,504.5 C1018.56522,503.119288 1019.70397,502 1021.1087,502 Z M1163.45652,502 C1164.86125,502 1166,503.119288 1166,504.5 C1166,505.880712 1164.86125,507 1163.45652,507 C1162.0518,507 1160.91304,505.880712 1160.91304,504.5 C1160.91304,503.119288 1162.0518,502 1163.45652,502 Z M1061.71739,502 C1063.12212,502 1064.26087,503.119288 1064.26087,504.5 C1064.26087,505.880712 1063.12212,507 1061.71739,507 C1060.31267,507 1059.17391,505.880712 1059.17391,504.5 C1059.17391,503.119288 1060.31267,502 1061.71739,502 Z M1082.06522,502 C1083.46994,502 1084.6087,503.119288 1084.6087,504.5 C1084.6087,505.880712 1083.46994,507 1082.06522,507 C1080.66049,507 1079.52174,505.880712 1079.52174,504.5 C1079.52174,503.119288 1080.66049,502 1082.06522,502 Z M1102.41304,502 C1103.81777,502 1104.95652,503.119288 1104.95652,504.5 C1104.95652,505.880712 1103.81777,507 1102.41304,507 C1101.00832,507 1099.86957,505.880712 1099.86957,504.5 C1099.86957,503.119288 1101.00832,502 1102.41304,502 Z M1122.76087,502 C1124.16559,502 1125.30435,503.119288 1125.30435,504.5 C1125.30435,505.880712 1124.16559,507 1122.76087,507 C1121.35615,507 1120.21739,505.880712 1120.21739,504.5 C1120.21739,503.119288 1121.35615,502 1122.76087,502 Z M1143.1087,502 C1144.51342,502 1145.65217,503.119288 1145.65217,504.5 C1145.65217,505.880712 1144.51342,507 1143.1087,507 C1141.70397,507 1140.56522,505.880712 1140.56522,504.5 C1140.56522,503.119288 1141.70397,502 1143.1087,502 Z M1153.28261,481 C1154.68733,481 1155.82609,482.119288 1155.82609,483.5 C1155.82609,484.880712 1154.68733,486 1153.28261,486 C1151.87788,486 1150.73913,484.880712 1150.73913,483.5 C1150.73913,482.119288 1151.87788,481 1153.28261,481 Z M1132.93478,481 C1134.33951,481 1135.47826,482.119288 1135.47826,483.5 C1135.47826,484.880712 1134.33951,486 1132.93478,486 C1131.53006,486 1130.3913,484.880712 1130.3913,483.5 C1130.3913,482.119288 1131.53006,481 1132.93478,481 Z M1112.58696,481 C1113.99168,481 1115.13043,482.119288 1115.13043,483.5 C1115.13043,484.880712 1113.99168,486 1112.58696,486 C1111.18223,486 1110.04348,484.880712 1110.04348,483.5 C1110.04348,482.119288 1111.18223,481 1112.58696,481 Z M1092.23913,481 C1093.64385,481 1094.78261,482.119288 1094.78261,483.5 C1094.78261,484.880712 1093.64385,486 1092.23913,486 C1090.83441,486 1089.69565,484.880712 1089.69565,483.5 C1089.69565,482.119288 1090.83441,481 1092.23913,481 Z M1071.8913,481 C1073.29603,481 1074.43478,482.119288 1074.43478,483.5 C1074.43478,484.880712 1073.29603,486 1071.8913,486 C1070.48658,486 1069.34783,484.880712 1069.34783,483.5 C1069.34783,482.119288 1070.48658,481 1071.8913,481 Z M1051.54348,481 C1052.9482,481 1054.08696,482.119288 1054.08696,483.5 C1054.08696,484.880712 1052.9482,486 1051.54348,486 C1050.13875,486 1049,484.880712 1049,483.5 C1049,482.119288 1050.13875,481 1051.54348,481 Z M1031.28261,481 C1032.68733,481 1033.82609,482.119288 1033.82609,483.5 C1033.82609,484.880712 1032.68733,486 1031.28261,486 C1029.87788,486 1028.73913,484.880712 1028.73913,483.5 C1028.73913,482.119288 1029.87788,481 1031.28261,481 Z M1010.93478,481 C1012.33951,481 1013.47826,482.119288 1013.47826,483.5 C1013.47826,484.880712 1012.33951,486 1010.93478,486 C1009.53006,486 1008.3913,484.880712 1008.3913,483.5 C1008.3913,482.119288 1009.53006,481 1010.93478,481 Z M990.586957,481 C991.991681,481 993.130435,482.119288 993.130435,483.5 C993.130435,484.880712 991.991681,486 990.586957,486 C989.182232,486 988.043478,484.880712 988.043478,483.5 C988.043478,482.119288 989.182232,481 990.586957,481 Z M970.23913,481 C971.643855,481 972.782609,482.119288 972.782609,483.5 C972.782609,484.880712 971.643855,486 970.23913,486 C968.834406,486 967.695652,484.880712 967.695652,483.5 C967.695652,482.119288 968.834406,481 970.23913,481 Z M949.891304,481 C951.296029,481 952.434783,482.119288 952.434783,483.5 C952.434783,484.880712 951.296029,486 949.891304,486 C948.48658,486 947.347826,484.880712 947.347826,483.5 C947.347826,482.119288 948.48658,481 949.891304,481 Z M929.543478,481 C930.948203,481 932.086957,482.119288 932.086957,483.5 C932.086957,484.880712 930.948203,486 929.543478,486 C928.138754,486 927,484.880712 927,483.5 C927,482.119288 928.138754,481 929.543478,481 Z M1061.71739,461 C1063.12212,461 1064.26087,462.119288 1064.26087,463.5 C1064.26087,464.880712 1063.12212,466 1061.71739,466 C1060.31267,466 1059.17391,464.880712 1059.17391,463.5 C1059.17391,462.119288 1060.31267,461 1061.71739,461 Z M960.065217,461 C961.469942,461 962.608696,462.119288 962.608696,463.5 C962.608696,464.880712 961.469942,466 960.065217,466 C958.660493,466 957.521739,464.880712 957.521739,463.5 C957.521739,462.119288 958.660493,461 960.065217,461 Z M980.413043,461 C981.817768,461 982.956522,462.119288 982.956522,463.5 C982.956522,464.880712 981.817768,466 980.413043,466 C979.008319,466 977.869565,464.880712 977.869565,463.5 C977.869565,462.119288 979.008319,461 980.413043,461 Z M1000.76087,461 C1002.16559,461 1003.30435,462.119288 1003.30435,463.5 C1003.30435,464.880712 1002.16559,466 1000.76087,466 C999.356145,466 998.217391,464.880712 998.217391,463.5 C998.217391,462.119288 999.356145,461 1000.76087,461 Z M1021.1087,461 C1022.51342,461 1023.65217,462.119288 1023.65217,463.5 C1023.65217,464.880712 1022.51342,466 1021.1087,466 C1019.70397,466 1018.56522,464.880712 1018.56522,463.5 C1018.56522,462.119288 1019.70397,461 1021.1087,461 Z M1041.45652,461 C1042.86125,461 1044,462.119288 1044,463.5 C1044,464.880712 1042.86125,466 1041.45652,466 C1040.0518,466 1038.91304,464.880712 1038.91304,463.5 C1038.91304,462.119288 1040.0518,461 1041.45652,461 Z M939.717391,461 C941.122116,461 942.26087,462.119288 942.26087,463.5 C942.26087,464.880712 941.122116,466 939.717391,466 C938.312667,466 937.173913,464.880712 937.173913,463.5 C937.173913,462.119288 938.312667,461 939.717391,461 Z M1082.06522,461 C1083.46994,461 1084.6087,462.119288 1084.6087,463.5 C1084.6087,464.880712 1083.46994,466 1082.06522,466 C1080.66049,466 1079.52174,464.880712 1079.52174,463.5 C1079.52174,462.119288 1080.66049,461 1082.06522,461 Z M1102.41304,461 C1103.81777,461 1104.95652,462.119288 1104.95652,463.5 C1104.95652,464.880712 1103.81777,466 1102.41304,466 C1101.00832,466 1099.86957,464.880712 1099.86957,463.5 C1099.86957,462.119288 1101.00832,461 1102.41304,461 Z M1122.76087,461 C1124.16559,461 1125.30435,462.119288 1125.30435,463.5 C1125.30435,464.880712 1124.16559,466 1122.76087,466 C1121.35615,466 1120.21739,464.880712 1120.21739,463.5 C1120.21739,462.119288 1121.35615,461 1122.76087,461 Z M1143.1087,461 C1144.51342,461 1145.65217,462.119288 1145.65217,463.5 C1145.65217,464.880712 1144.51342,466 1143.1087,466 C1141.70397,466 1140.56522,464.880712 1140.56522,463.5 C1140.56522,462.119288 1141.70397,461 1143.1087,461 Z M1163.45652,461 C1164.86125,461 1166,462.119288 1166,463.5 C1166,464.880712 1164.86125,466 1163.45652,466 C1162.0518,466 1160.91304,464.880712 1160.91304,463.5 C1160.91304,462.119288 1162.0518,461 1163.45652,461 Z" id="Combined-Shape" fill="#3B55A3" fill-rule="nonzero" opacity="0.554439" mask="url(#mask-2)"></path>
                <path d="M0.00260870682,454.165218 C86.1146673,467.616064 152,542.11386 152,632 C152,731.411255 71.411255,812 -28,812 C-39.2273553,812 -50.2146276,810.972083 -60.8728401,809.005225 L0,809 Z M-152.002786,501.526096 L-152.002786,762.473904 C-186.496451,729.680648 -208,683.351536 -208,632 C-208,580.648464 -186.496451,534.319352 -152.002786,501.526096 Z M-28,452 C-18.8571559,452 -9.87352138,452.681657 -1.0971458,453.996922 L-54.9028542,453.996922 C-46.1264786,452.681657 -37.1428441,452 -28,452 Z" id="Combined-Shape" fill="#3D34D2" opacity="0.04" mask="url(#mask-2)"></path>
            </g>
        </g>
    </g>
</svg>