<?xml version="1.0" encoding="UTF-8"?>
<svg width="110px" height="44px" viewBox="0 0 110 44" version="1.1" xmlns="http://www.w3.org/2000/svg" xmlns:xlink="http://www.w3.org/1999/xlink">
    <title>logo</title>
    <defs>
        <polygon id="path-1" points="0 0 5.5 0 5.5 5.5 0 5.5"></polygon>
    </defs>
    <g id="Page-1" stroke="none" stroke-width="1" fill="none" fill-rule="evenodd">
        <g id="Find-Help" transform="translate(-40.000000, -48.000000)">
            <g id="logo" transform="translate(40.000000, 48.000000)">
                <rect id="bound" x="0" y="0" width="193.6" height="44"></rect>
                <g id="REMOTE-RECRUIT-logotype-color-background-white" transform="translate(-0.012775, 0.000000)">
                    <g id="Group-3" transform="translate(14.312775, 38.500000)">
                        <mask id="mask-2" fill="white">
                            <use xlink:href="#path-1"></use>
                        </mask>
                        <g id="Clip-2"></g>
                        <path d="M5.5,2.7569551 C5.5,1.23413077 4.26865332,0 2.75,0 C1.2311192,0 0,1.23413077 0,2.7569551 C0,4.27955139 1.2311192,5.51368216 2.75,5.51368216 C4.26865332,5.51368216 5.5,4.27955139 5.5,2.7569551" id="Fill-1" fill="#FFFFFF" mask="url(#mask-2)"></path>
                    </g>
                    <g id="Group-16">
                        <path d="M25.4950422,4.4 C27.0067003,4.4 28.3640093,4.75457859 29.5657126,5.46104013 C30.7672065,6.16874581 31.6909976,7.11822847 32.3368764,8.30782926 C32.9827553,9.4976374 33.3054853,10.808334 33.3054853,12.2413706 C33.3054853,12.6469588 33.2797256,13.0446674 33.2250646,13.4311788 L21.7954799,13.4311788 C21.968887,14.4505404 22.3802055,15.2316501 23.0306918,15.7769961 C23.6811781,16.3210979 24.503815,16.5946004 25.4950422,16.5946004 C26.1968386,16.5946004 26.8265914,16.4419864 27.3872327,16.1350997 C27.9461986,15.8280056 28.3818108,15.4049996 28.6917656,14.864008 L32.9775196,14.864008 C32.4315383,16.4961063 31.4853383,17.7908365 30.1374537,18.7513091 C28.7912444,19.7119889 27.2429362,20.1909811 25.4950422,20.1909811 C24.0298773,20.1909811 22.6981186,19.8459409 21.5014416,19.1554457 C20.3047646,18.4682683 19.3646381,17.5185783 18.6821091,16.3115596 C17.9993708,15.1026747 17.6588393,13.7635703 17.6588393,12.2952832 C17.6588393,10.8178724 17.9976954,9.47524296 18.6756169,8.26656543 C19.3535384,7.05768055 20.2915706,6.11296707 21.488457,5.42744848 C22.6853435,4.74192988 24.020453,4.4 25.4950422,4.4 Z M52.0161796,4.4 C53.5481571,4.4 54.7961923,4.95231011 55.7625386,6.05818226 C56.728885,7.16572365 57.2127752,8.59814107 57.2127752,10.3571038 L57.2127752,19.8 L53.2183251,19.8 L53.2183251,11.0389887 C53.2183251,10.0307671 53.0298497,9.26729805 52.651055,8.74712083 C52.2724653,8.22527437 51.7221989,7.96299488 51.0012804,7.96299488 C50.1101194,7.96299488 49.4139895,8.28766225 48.9112517,8.93595372 C48.4083091,9.58570577 48.1550965,10.4948161 48.1550965,11.6630762 L48.1550965,19.8 L44.2692247,19.8 L44.2692247,11.0389887 C44.2692247,10.0307671 44.0838222,9.26729805 43.7144513,8.74712083 C43.3450805,8.22527437 42.8044428,7.96299488 42.0927431,7.96299488 C41.1843735,7.96299488 40.475542,8.28766225 39.9678875,8.93595372 C39.4606427,9.58570577 39.2074301,10.4948161 39.2074301,11.6630762 L39.2074301,19.8 L35.2127752,19.8 L35.2127752,4.75220985 L37.9913538,4.75220985 L38.7391096,6.61675203 C39.2641776,5.93674498 39.9160567,5.39716283 40.6955665,4.99863155 C41.4750764,4.59863968 42.2920764,4.4 43.1471812,4.4 C44.0821833,4.4 44.9245865,4.61157629 45.6725472,5.03076444 C46.4205079,5.45329106 47.0082644,6.0454543 47.435612,6.80725415 C47.9510513,6.06465057 48.612764,5.47561716 49.4184965,5.04683088 C50.2248436,4.61470612 51.0906014,4.4 52.0161796,4.4 Z M67.6611882,4.4 C69.206258,4.4 70.6104053,4.731846 71.8698213,5.39432466 C73.1296605,6.05801665 74.1178111,6.97954146 74.8353312,8.15829241 C75.5526397,9.33583003 75.9127752,10.6496652 75.9127752,12.0997978 C75.9127752,13.5408304 75.5526397,14.8502167 74.8353312,16.0289676 C74.1178111,17.2079208 73.1296605,18.1290412 71.8698213,18.7977887 C70.6104053,19.466334 69.206258,19.8 67.6611882,19.8 C66.1080777,19.8 64.7009681,19.466334 63.4413405,18.7977887 C62.1800202,18.1290412 61.1935623,17.2079208 60.4809089,16.0289676 C59.7682555,14.8502167 59.4127752,13.5408304 59.4127752,12.0997978 C59.4127752,10.6401607 59.7682555,9.32491005 60.4809089,8.15222575 C61.1935623,6.97650813 62.1800202,6.05801665 63.4413405,5.39432466 C64.7009681,4.731846 66.1080777,4.4 67.6611882,4.4 Z M96.825452,4.4 C98.313075,4.4 99.648988,4.7457993 100.831954,5.43476902 C102.014302,6.12495207 102.923737,7.05092576 103.559435,8.2110723 C104.195133,9.37142107 104.512775,10.6496652 104.512775,12.0472201 C104.512775,12.442766 104.487421,12.8306274 104.433828,13.2075689 L93.1842078,13.2075689 C93.3546753,14.2016913 93.759716,14.9634609 94.3997423,15.4953043 C95.0403869,16.0259343 95.8496439,16.2926649 96.825452,16.2926649 C97.5161856,16.2926649 98.1360114,16.1438296 98.6880211,15.8445413 C99.2383818,15.5450508 99.666715,15.1325183 99.9715778,14.6049216 L104.189979,14.6049216 C103.652811,16.1966095 102.72132,17.4592825 101.395095,18.3959739 C100.069694,19.3328676 98.5455869,19.8 96.825452,19.8 C95.3833832,19.8 94.0724116,19.4635029 92.8945985,18.7901043 C91.7165792,18.1199412 90.7916846,17.1937653 90.1197085,16.0166321 C89.4479387,14.8376789 89.1127752,13.5317304 89.1127752,12.0997978 C89.1127752,10.6589674 89.4462896,9.34958111 90.1135247,8.17083016 C90.7807598,6.99187699 91.7040054,6.0705544 92.8820247,5.40200909 C94.0602501,4.73346377 95.3739014,4.4 96.825452,4.4 Z M9.16996717,0 C11.0686555,0 12.6428076,0.619014717 13.8960632,1.85683238 C15.1477012,3.09549713 15.774329,4.66219945 15.774329,6.5588453 C15.774329,7.83795884 15.4671823,8.98153718 14.8514734,9.9904274 C14.2357646,10.9976234 13.396419,11.773139 12.3342455,12.3165504 L12.3342455,12.3165504 L16.5127752,19.8 L11.9371183,19.8 L6.07908863,9.0855181 L8.89234214,9.0855181 C9.73633841,9.0855181 10.4048223,8.84833148 10.8961761,8.37395824 C11.3881366,7.90064388 11.6346223,7.28565286 11.6346223,6.53110293 C11.6346223,5.77634123 11.3881366,5.15923248 10.8961761,4.68083554 C10.4048223,4.20243861 9.73633841,3.9627107 8.89234214,3.9627107 L8.89234214,3.9627107 L3.27918054,3.9627107 L1.11277517,0 Z M83.7619654,1.1 L83.7619654,4.97314115 L87.9306137,4.97314115 L87.9306137,8.19023934 L83.8313415,8.19023934 L83.8313415,13.9683928 C83.8313415,14.692281 84.0319246,15.2504623 84.4324619,15.6431424 C84.8327896,16.0372616 85.406453,16.2329848 86.1542904,16.2329848 L88.0127752,16.2329848 L88.0127752,19.8 L85.1157438,19.8 C83.4580516,19.8 82.1478691,19.3269336 81.1864538,18.3838847 C80.2248288,17.4424805 79.7459027,16.1478699 79.7459027,14.5045758 L79.7459027,8.19023934 L77.0127752,8.19023934 L77.0127752,7.33230538 L82.9839462,1.1 L83.7619654,1.1 Z M67.6611882,8.10551251 C66.476677,8.10551251 65.5007989,8.47638732 64.7365162,9.21935026 C63.9737146,9.96089765 63.5924197,10.9226646 63.5924197,12.0997978 C63.5924197,13.2771332 63.9737146,14.2391023 64.7365162,14.9804475 C65.5007989,15.7232082 66.476677,16.0938808 67.6611882,16.0938808 C68.8492965,16.0938808 69.8230587,15.7232082 70.5860718,14.9804475 C71.3503545,14.2391023 71.7320727,13.2771332 71.7320727,12.0997978 C71.7320727,10.9226646 71.3503545,9.96089765 70.5860718,9.21935026 C69.8230587,8.47638732 68.8492965,8.10551251 67.6611882,8.10551251 Z M25.4950422,7.84666974 C24.5953354,7.84666974 23.8307104,8.09466739 23.2009575,8.59107741 C22.5745555,9.08728008 22.1406188,9.7806782 21.9043829,10.6729306 L29.2235057,10.6729306 C28.9407767,9.76160146 28.4796141,9.06488564 27.8370861,8.57822135 C27.1962335,8.09155705 26.415273,7.84666974 25.4950422,7.84666974 Z M96.825452,7.76133099 C95.9401339,7.76133099 95.1873559,8.00318828 94.5675302,8.4873073 C93.9507963,8.9712241 93.5241122,9.64745384 93.2913941,10.5176143 L100.494936,10.5176143 C100.21687,9.62884944 99.7631827,8.94938414 99.1305771,8.47476955 C98.4998266,8.00015495 97.7311767,7.76133099 96.825452,7.76133099 Z" id="Combined-Shape" fill="#FFFFFF"></path>
                        <polyline id="Fill-11" fill="#52B4DA" points="3.32677881 14.070457 0 19.7723295 6.65230105 19.7723295 3.32677881 14.070457"></polyline>
                        <path d="M39.2708594,28.2212529 C40.782727,28.2212529 42.140036,28.5764536 43.3417393,29.2822931 C44.5434426,29.9902061 45.4668148,30.9398961 46.1126937,32.1292895 C46.7585725,33.319305 47.081512,34.6297943 47.081512,36.0626236 C47.081512,36.4684191 47.0557522,36.865713 47.0010913,37.2524317 L35.5712971,37.2524317 C35.7447043,38.272208 36.1560227,39.0526956 36.8067184,39.5986637 C37.4574142,40.1425582 38.2798417,40.4158533 39.2708594,40.4158533 C39.9728653,40.4158533 40.6028275,40.2632394 41.1632594,39.9561453 C41.7224347,39.6496733 42.157628,39.2264599 42.4680017,38.6856757 L46.7539651,38.6856757 C46.207565,40.3175666 45.2615744,41.6122968 43.9136897,42.5729767 C42.5674805,43.5334492 41.0187534,44.012234 39.2708594,44.012234 C37.8059039,44.012234 36.4741453,43.6671938 35.2774683,42.9766986 C34.0803724,42.2897286 33.1408742,41.3400385 32.4581358,40.1328125 C31.7753974,38.9239276 31.4346565,37.5850306 31.4346565,36.1169508 C31.4346565,34.63954 31.7735126,33.2969106 32.4516435,32.0880257 C33.129565,30.8791408 34.0675973,29.9346347 35.2644837,29.2491161 C36.4613701,28.5633902 37.7962702,28.2212529 39.2708594,28.2212529 Z M56.5707375,28.2212529 C58.5194739,28.2212529 60.1915546,28.7829801 61.5890739,29.9060196 C62.9868027,31.0257415 63.8718495,32.5108244 64.2448424,34.3591949 L60.1884131,34.3591949 C59.8606568,33.6214226 59.3737345,33.0453879 58.7280651,32.6352379 C58.0821862,32.2248806 57.3529546,32.0212571 56.5435118,32.0212571 C55.4412872,32.0212571 54.5210564,32.40922 53.7788402,33.1888782 C53.0364146,33.9695731 52.665516,34.9352296 52.665516,36.0897872 C52.665516,37.2443448 53.0380901,38.2180881 53.7851231,39.016201 C54.5319467,39.8149359 55.4511304,40.2126445 56.5435118,40.2126445 C57.3724315,40.2126445 58.0997783,39.9963723 58.7280651,39.5638279 C59.3561425,39.1308688 59.8430648,38.513985 60.1884131,37.7121397 L64.2992939,37.7121397 C63.9443119,39.595346 63.0544483,41.1160942 61.6294937,42.2735548 C60.2043297,43.4335037 58.5096307,44.012234 56.5435118,44.012234 C55.4236952,44.012234 54.3681733,43.8073664 53.3756895,43.397009 C52.3827869,42.9864444 51.5329242,42.4299011 50.8227507,41.7269646 C50.1127865,41.0238208 49.5521453,40.1805044 49.1427117,39.1992962 C48.7328592,38.2180881 48.5288754,37.1759174 48.5288754,36.0771385 C48.5288754,34.9764934 48.7328592,33.9392992 49.1427117,32.9661779 C49.5521453,31.9928494 50.1127865,31.1590713 50.8227507,30.4656732 C51.5329242,29.7722751 52.3859283,29.2250628 53.3819724,28.8242439 C54.3794825,28.4215587 55.4412872,28.2212529 56.5707375,28.2212529 Z M80.0956816,28.6399045 L80.0956816,36.8198873 C80.0956816,37.8838304 80.3637507,38.7140834 80.9003076,39.3156229 C81.4366552,39.9136373 82.1788714,40.2126445 83.1252808,40.2126445 C84.0729467,40.2126445 84.8101366,39.9101123 85.3391542,39.307536 C85.865868,38.7047524 86.1291201,37.8744994 86.1291201,36.8198873 L86.1291201,28.6399045 L90.2127752,28.6399045 L90.2127752,37.2791806 C90.2127752,39.2992418 89.5668963,40.924912 88.273882,42.1593017 C86.9806582,43.3953502 85.2648069,44.012234 83.1252808,44.012234 C80.995179,44.012234 79.2778616,43.3953502 77.9718627,42.1593017 C76.6658638,40.924912 76.0120266,39.2992418 76.0120266,37.2791806 L76.0120266,28.6399045 L80.0956816,28.6399045 Z M96.8127752,28.9008565 L96.8127752,44 L92.4127752,44 L92.4127752,28.9008565 L96.8127752,28.9008565 Z M74.8127752,28.6 L74.8127752,32.3048489 L72.8344374,32.3048489 C72.0388185,32.3048489 71.4277136,32.5079216 71.0015688,32.9174836 C70.5754241,33.3253373 70.3610131,33.9050874 70.3610131,34.6569475 L70.3610131,34.6569475 L70.3610131,44 L66.0127752,44 L66.0127752,44 L66.0127752,34.1002593 C66.0127752,32.3932528 66.522587,31.0486169 67.5460037,30.0710492 C68.5694204,29.0913462 69.9643192,28.6 71.7289153,28.6 L71.7289153,28.6 L74.8127752,28.6 Z M23.2032612,24.2068427 C25.1695896,24.2068427 26.8002034,24.8127367 28.098244,26.0249393 C29.3946092,27.2379713 30.0436295,28.7719902 30.0436295,30.6284476 C30.0436295,31.8810845 29.7255069,33.0008064 29.0877958,33.9886499 C28.4498752,34.9748345 27.5809545,35.7341718 26.4806148,36.2664544 L26.4806148,36.2664544 L30.8082546,43.5942045 L26.0692964,43.5942045 L20.0017209,33.1026181 L22.9159247,33.1026181 C23.7896623,33.1026181 24.4820344,32.8705869 24.991575,32.406317 C25.5006968,31.9422545 25.7562001,31.3405077 25.7562001,30.6016986 C25.7562001,29.8630969 25.5006968,29.2584471 24.991575,28.7898228 C24.4820344,28.3216132 23.7896623,28.0870937 22.9159247,28.0870937 L22.9159247,28.0870937 L17.1013395,28.0870937 L14.8573083,24.2068427 Z M105.761884,24.2 L105.761884,28.0732616 L109.930822,28.0732616 L109.930822,31.2900834 L105.831052,31.2900834 L105.831052,37.0681098 C105.831052,37.7921877 106.031849,38.3503568 106.432394,38.7430282 C106.832939,39.1373443 107.406613,39.3328577 108.154255,39.3328577 L110.012775,39.3328577 L110.012775,42.9 L107.115689,42.9 C105.458174,42.9 104.147757,42.4267384 103.186324,41.4839158 C102.22489,40.5423268 101.745745,39.2473334 101.745745,37.6046922 L101.745745,31.2900834 L99.0127752,31.2900834 L99.0127752,30.4323739 L104.983641,24.2 L105.761884,24.2 Z M39.2708594,31.66813 C38.3713621,31.66813 37.606737,31.916335 36.9769842,32.4125377 C36.3503728,32.908533 35.9168549,33.6023458 35.6808284,34.4945983 L42.9997418,34.4945983 C42.7168033,33.5832691 42.2558502,32.8863459 41.6131128,32.399889 C40.9720508,31.9130173 40.1917185,31.66813 39.2708594,31.66813 Z M96.7972051,23.1 L96.7972051,27.1679482 L92.4127752,27.1679482 L92.4127752,23.1 L96.7972051,23.1 Z" id="Combined-Shape" fill="#52B4DA"></path>
                    </g>
                </g>
            </g>
        </g>
    </g>
</svg>